<?xml version="1.0" encoding="utf-8"?>
<!-- Generator: Adobe Illustrator 18.1.0, SVG Export Plug-In . SVG Version: 6.00 Build 0)  -->
<svg version="1.1" id="Layer_1" xmlns="http://www.w3.org/2000/svg" xmlns:xlink="http://www.w3.org/1999/xlink" x="0px" y="0px"
	 viewBox="0 0 50 50" enable-background="new 0 0 50 50" xml:space="preserve">
<g>
	<path fill="#FFD50A" d="M41.9,47.3h-34c-3.8,0-7-3.2-7-7v-31c0-3.8,3.2-7,7-7h34c3.8,0,7,3.1,7,7v31C48.9,44.2,45.7,47.3,41.9,47.3
		z"/>
	<path fill="#FFC917" d="M48.9,11.8v29.5c0,3.3-0.5,6-4.6,6H5.5c-4.1,0-4.6-2.7-4.6-6v0.9"/>
	<path fill="#3F3F3F" d="M39.4,33.3c0.1,0.5-0.1,0.9-0.4,1.2l-4,4c-0.2,0.2-0.4,0.4-0.7,0.5c-0.3,0.1-0.6,0.2-0.9,0.3
		c0,0-0.1,0-0.2,0c-0.1,0-0.2,0-0.4,0c-0.4,0-1-0.1-1.9-0.2c-0.9-0.1-1.9-0.5-3.2-1c-1.2-0.5-2.7-1.3-4.2-2.3
		c-1.6-1-3.3-2.5-5.1-4.3c-1.4-1.4-2.6-2.7-3.5-4c-0.9-1.3-1.7-2.5-2.3-3.5c-0.6-1.1-1-2.1-1.3-3c-0.3-0.9-0.5-1.6-0.6-2.3
		c-0.1-0.6-0.1-1.1-0.1-1.5c0-0.4,0-0.6,0-0.6c0-0.3,0.1-0.6,0.3-0.9c0.1-0.3,0.3-0.5,0.5-0.7l4-4c0.3-0.3,0.6-0.4,1-0.4
		c0.3,0,0.5,0.1,0.7,0.2c0.2,0.2,0.4,0.3,0.5,0.6l3.3,6.2c0.2,0.3,0.2,0.7,0.2,1.1c-0.1,0.4-0.3,0.7-0.5,1l-1.5,1.5
		c0,0-0.1,0.1-0.1,0.2c0,0.1,0,0.2,0,0.2c0.1,0.4,0.3,0.9,0.5,1.5c0.2,0.5,0.6,1.1,1.1,1.8c0.5,0.7,1.2,1.5,2.2,2.4
		c0.9,0.9,1.7,1.7,2.4,2.2c0.7,0.5,1.3,0.9,1.8,1.1c0.5,0.2,0.8,0.4,1.1,0.4l0.4,0.1c0,0,0.1,0,0.2,0c0.1,0,0.2-0.1,0.2-0.1l1.7-1.8
		c0.4-0.3,0.8-0.5,1.3-0.5c0.3,0,0.6,0.1,0.8,0.2h0l5.9,3.5C39,32.6,39.3,32.9,39.4,33.3z"/>
</g>
</svg>
